<svg width="448" height="512" viewBox="0 0 448 512" fill="none" xmlns="http://www.w3.org/2000/svg">
<g id="trash-alt-solid (2) 1">
<g clip-path="url(#clip0_3_11)">
<path id="Vector" d="M32 464C32 476.73 37.0571 488.939 46.0589 497.941C55.0606 506.943 67.2696 512 80 512H368C380.73 512 392.939 506.943 401.941 497.941C410.943 488.939 416 476.73 416 464V128H32V464ZM304 208C304 203.757 305.686 199.687 308.686 196.686C311.687 193.686 315.757 192 320 192C324.243 192 328.313 193.686 331.314 196.686C334.314 199.687 336 203.757 336 208V432C336 436.243 334.314 440.313 331.314 443.314C328.313 446.314 324.243 448 320 448C315.757 448 311.687 446.314 308.686 443.314C305.686 440.313 304 436.243 304 432V208ZM208 208C208 203.757 209.686 199.687 212.686 196.686C215.687 193.686 219.757 192 224 192C228.243 192 232.313 193.686 235.314 196.686C238.314 199.687 240 203.757 240 208V432C240 436.243 238.314 440.313 235.314 443.314C232.313 446.314 228.243 448 224 448C219.757 448 215.687 446.314 212.686 443.314C209.686 440.313 208 436.243 208 432V208ZM112 208C112 203.757 113.686 199.687 116.686 196.686C119.687 193.686 123.757 192 128 192C132.243 192 136.313 193.686 139.314 196.686C142.314 199.687 144 203.757 144 208V432C144 436.243 142.314 440.313 139.314 443.314C136.313 446.314 132.243 448 128 448C123.757 448 119.687 446.314 116.686 443.314C113.686 440.313 112 436.243 112 432V208ZM432 32H312L302.6 13.3C300.609 9.30213 297.542 5.93922 293.743 3.58958C289.945 1.23993 285.566 -0.00321107 281.1 -7.77828e-06H166.8C162.344 -0.0171383 157.973 1.22137 154.188 3.57363C150.403 5.92588 147.358 9.29674 145.4 13.3L136 32H16C11.7565 32 7.68687 33.6857 4.68629 36.6863C1.68571 39.6869 0 43.7565 0 48L0 80C0 84.2435 1.68571 88.3131 4.68629 91.3137C7.68687 94.3143 11.7565 96 16 96H432C436.243 96 440.313 94.3143 443.314 91.3137C446.314 88.3131 448 84.2435 448 80V48C448 43.7565 446.314 39.6869 443.314 36.6863C440.313 33.6857 436.243 32 432 32Z" fill="black"></path>
</g>
<rect x="0.5" y="0.5" width="447" height="511" stroke="black"></rect>
</g>
<defs>
<clipPath id="clip0_3_11">
<rect width="448" height="512" fill="white"></rect>
</clipPath>
</defs>
</svg>